<svg width="28" height="22" viewBox="0 0 28 22" fill="none" xmlns="http://www.w3.org/2000/svg">
<path d="M1.782 18V3.436H3.432V9.904H11.902V3.436H13.552V18H11.902V11.51H3.432V18H1.782ZM21.4558 18.176C20.0185 18.176 18.8525 17.9853 17.9578 17.604C17.0632 17.208 16.3885 16.6653 15.9338 15.976C15.4938 15.2867 15.2372 14.5093 15.1638 13.644H16.8798C16.9238 14.348 17.1585 14.92 17.5838 15.36C18.0092 15.7853 18.5665 16.1007 19.2558 16.306C19.9598 16.5113 20.7298 16.614 21.5658 16.614C22.7978 16.614 23.7732 16.4013 24.4918 15.976C25.2105 15.536 25.5698 14.8907 25.5698 14.04C25.5698 13.5267 25.3865 13.116 25.0198 12.808C24.6678 12.4853 24.1912 12.2213 23.5898 12.016C23.0032 11.8107 22.3578 11.6273 21.6538 11.466C20.9498 11.29 20.2385 11.1067 19.5198 10.916C18.8158 10.7253 18.1632 10.4833 17.5618 10.19C16.9752 9.89667 16.4985 9.52267 16.1318 9.068C15.7798 8.59867 15.6038 8.00467 15.6038 7.286C15.6038 6.098 16.0585 5.13 16.9678 4.382C17.8918 3.634 19.2632 3.26 21.0818 3.26C22.3725 3.26 23.4358 3.458 24.2718 3.854C25.1078 4.23533 25.7312 4.74133 26.1418 5.372C26.5672 6.00267 26.8018 6.68467 26.8458 7.418H25.1518C25.0638 6.68467 24.6972 6.06867 24.0518 5.57C23.4065 5.05667 22.4165 4.8 21.0818 4.8C20.2605 4.8 19.5932 4.88067 19.0798 5.042C18.5665 5.20333 18.1705 5.416 17.8918 5.68C17.6278 5.92933 17.4445 6.19333 17.3418 6.472C17.2538 6.75067 17.2098 7.01467 17.2098 7.264C17.2098 7.748 17.3858 8.144 17.7378 8.452C18.1045 8.74533 18.5812 8.99467 19.1678 9.2C19.7692 9.39067 20.4292 9.56667 21.1478 9.728C21.8665 9.88933 22.5778 10.0727 23.2818 10.278C24.0005 10.4687 24.6532 10.718 25.2398 11.026C25.8412 11.3193 26.3178 11.7007 26.6698 12.17C27.0365 12.6393 27.2198 13.2407 27.2198 13.974C27.2198 15.3233 26.7065 16.3647 25.6798 17.098C24.6532 17.8167 23.2452 18.176 21.4558 18.176Z" fill="white"/>
</svg>
